<svg xmlns="http://www.w3.org/2000/svg" width="148" height="148" viewBox="0 0 148 148" fill="none">
<path d="M148 74C148.003 79.097 147.48 84.1806 146.439 89.17C146.032 91.1433 145.544 93.0871 144.977 95.0012C139.695 112.783 127.935 127.936 112.022 137.468C96.1091 147 77.1996 150.217 59.0298 146.483C53.7678 145.406 48.6407 143.752 43.7414 141.551C30.7147 135.706 19.6552 126.22 11.8947 114.235C4.13423 102.25 0.0035273 88.2779 0 74C0 33.1298 33.1298 0 74 0C114.87 0 148 33.1298 148 74Z" fill="#fffffd"/>
<path d="M103.507 113.962H43.994C42.7098 113.962 41.4396 113.694 40.2645 113.175C39.0894 112.655 38.0352 111.896 37.1691 110.946C36.303 109.995 35.644 108.874 35.2342 107.654C34.8244 106.434 34.6727 105.142 34.7888 103.86L40.1221 44.4002C40.3282 42.0956 41.3871 39.9517 43.0906 38.3902C44.7941 36.8286 47.0189 35.9626 49.3273 35.9624H98.4863C100.803 35.9623 103.036 36.8345 104.742 38.4063C106.448 39.978 107.502 42.1346 107.697 44.4489L112.717 103.908C112.826 105.187 112.669 106.474 112.256 107.689C111.843 108.904 111.182 110.019 110.316 110.964C109.45 111.909 108.398 112.664 107.226 113.18C106.053 113.696 104.787 113.963 103.507 113.962Z" fill="#f9443b"/>
<path d="M69.3337 83.3334C68.9381 83.3334 68.5514 83.4507 68.2225 83.6704C67.8936 83.8902 67.6373 84.2025 67.4859 84.568C67.3345 84.9334 67.2949 85.3356 67.3721 85.7235C67.4493 86.1115 67.6397 86.4679 67.9194 86.7476C68.1992 87.0273 68.5555 87.2178 68.9435 87.2949C69.3314 87.3721 69.7336 87.3325 70.099 87.1811C70.4645 87.0297 70.7768 86.7734 70.9966 86.4445C71.2164 86.1156 71.3337 85.7289 71.3337 85.3334C71.3337 84.8029 71.1229 84.2942 70.7479 83.9191C70.3728 83.5441 69.8641 83.3334 69.3337 83.3334ZM81.3337 83.3334C80.9381 83.3334 80.5514 83.4507 80.2225 83.6704C79.8936 83.8902 79.6373 84.2025 79.4859 84.568C79.3345 84.9334 79.2949 85.3356 79.3721 85.7235C79.4493 86.1115 79.6397 86.4679 79.9194 86.7476C80.1992 87.0273 80.5555 87.2178 80.9435 87.2949C81.3314 87.3721 81.7336 87.3325 82.099 87.1811C82.4645 87.0297 82.7768 86.7734 82.9966 86.4445C83.2164 86.1156 83.3337 85.7289 83.3337 85.3334C83.3337 84.8029 83.1229 84.2942 82.7479 83.9191C82.3728 83.5441 81.8641 83.3334 81.3337 83.3334ZM86.827 67.1067C86.5802 66.7645 86.2557 66.4858 85.8802 66.2934C85.5047 66.101 85.0889 66.0005 84.667 66H66.7737L66.227 63.9734C66.074 63.4051 65.7373 62.9035 65.2695 62.5465C64.8016 62.1896 64.2288 61.9974 63.6403 62H62.0003C61.6467 62 61.3076 62.1405 61.0575 62.3905C60.8075 62.6406 60.667 62.9797 60.667 63.3334C60.667 63.687 60.8075 64.0261 61.0575 64.2762C61.3076 64.5262 61.6467 64.6667 62.0003 64.6667H63.6403L67.4137 78.64C67.5566 79.2182 67.8889 79.7318 68.3577 80.0991C68.8265 80.4664 69.4048 80.6662 70.0003 80.6667H81.5603C82.1187 80.6644 82.6623 80.4869 83.1145 80.1591C83.5666 79.8314 83.9044 79.37 84.0803 78.84L87.2003 69.5067C87.3326 69.1057 87.3677 68.679 87.3028 68.2617C87.2379 67.8445 87.0748 67.4486 86.827 67.1067V67.1067Z" fill="#cc1a0c"/>
<path d="M60.9034 45.9624C61.2118 45.9624 61.5076 45.8363 61.7257 45.6117C61.9438 45.3872 62.0664 45.0827 62.0664 44.7652V27.9117C62.0664 27.8575 62.0664 27.8033 62.0664 27.7492V27.6787C62.1326 24.3985 63.4449 21.2755 65.7217 18.9797C67.9986 16.6839 71.0587 15.3981 74.2457 15.3981C77.4328 15.3981 80.4929 16.6839 82.7697 18.9797C85.0466 21.2755 86.3589 24.3985 86.4251 27.6787V27.7438C86.4251 27.7979 86.4251 27.8521 86.4251 27.9117V44.7652C86.4251 44.9224 86.4552 45.0781 86.5136 45.2233C86.5721 45.3686 86.6577 45.5006 86.7657 45.6117C86.8737 45.7229 87.0019 45.8111 87.143 45.8713C87.2841 45.9314 87.4353 45.9624 87.5881 45.9624C87.8965 45.9624 88.1923 45.8363 88.4104 45.6117C88.6285 45.3872 88.751 45.0827 88.751 44.7652V27.9117C88.751 27.8088 88.751 27.7112 88.751 27.6083C88.6786 23.6985 87.1192 19.974 84.4078 17.2353C81.6964 14.4966 78.0495 12.9624 74.251 12.9624C70.4525 12.9624 66.8056 14.4966 64.0942 17.2353C61.3828 19.974 59.8233 23.6985 59.751 27.6083C59.751 27.7112 59.751 27.8088 59.751 27.9117V44.7652C59.7503 44.9221 59.7797 45.0777 59.8376 45.2229C59.8955 45.3681 59.9806 45.5002 60.0882 45.6114C60.1958 45.7227 60.3236 45.8109 60.4644 45.8712C60.6052 45.9314 60.7562 45.9624 60.9087 45.9624H60.9034Z" fill="#061951"/>
</svg>