<?xml version="1.0" encoding="UTF-8"?>
<svg xmlns="http://www.w3.org/2000/svg" xmlns:xlink="http://www.w3.org/1999/xlink" width="30px" height="30px" viewBox="0 0 30 30" version="1.1">
<defs>
<linearGradient id="linear0" gradientUnits="userSpaceOnUse" x1="-1383.688965" y1="1177.103027" x2="-1382.688965" y2="1177.103027" gradientTransform="matrix(12.349358,16.285609,-16.285609,12.349358,36267.237419,8006.911877)">
<stop offset="0" style="stop-color:rgb(27.058825%,36.862746%,60.784316%);stop-opacity:1;"/>
<stop offset="1" style="stop-color:rgb(35.294119%,43.921569%,70.19608%);stop-opacity:1;"/>
</linearGradient>
<linearGradient id="linear1" gradientUnits="userSpaceOnUse" x1="-1383.688965" y1="1176.838013" x2="-1382.688965" y2="1176.838013" gradientTransform="matrix(12.349358,16.285609,-16.285609,12.349358,36267.237419,8006.911877)">
<stop offset="0" style="stop-color:rgb(41.176471%,48.235294%,69.01961%);stop-opacity:1;"/>
<stop offset="1" style="stop-color:rgb(46.27451%,53.333336%,76.078433%);stop-opacity:1;"/>
</linearGradient>
</defs>
<g id="surface1">
<path style=" stroke:none;fill-rule:nonzero;fill:url(#linear0);" d="M 1.695312 10.675781 L 1.695312 23.808594 C 1.695312 26.292969 3.707031 28.304688 6.191406 28.304688 L 23.808594 28.304688 C 26.292969 28.304688 28.304688 26.292969 28.304688 23.808594 L 28.304688 10.71875 C 24.5 11.714844 19.960938 12.292969 15.085938 12.292969 C 10.136719 12.292969 5.535156 11.695312 1.695312 10.675781 M 0.00390625 5.175781 C 0 5.246094 0 5.3125 0 5.382812 L 0 24.617188 C 0 27.582031 2.417969 30 5.386719 30 L 24.617188 30 C 27.582031 30 30 27.582031 30 24.617188 L 30 5.382812 C 30 5.347656 30 5.3125 30 5.277344 L 30 10.234375 C 29.773438 10.304688 29.542969 10.375 29.3125 10.441406 L 29.3125 24.175781 C 29.3125 27.007812 27.003906 29.3125 24.171875 29.3125 L 5.828125 29.3125 C 2.996094 29.3125 0.6875 27.007812 0.6875 24.175781 L 0.6875 10.390625 C 0.457031 10.320312 0.226562 10.25 0 10.179688 L 0 5.355469 C 0 5.292969 0.00390625 5.234375 0.00390625 5.175781 "/>
<path style=" stroke:none;fill-rule:nonzero;fill:rgb(50.196081%,56.862748%,75.686276%);fill-opacity:1;" d="M 1.695312 6.1875 C 1.695312 3.707031 3.707031 1.691406 6.191406 1.691406 L 23.808594 1.691406 C 26.292969 1.691406 28.304688 3.707031 28.304688 6.1875 L 28.304688 23.808594 C 28.304688 26.292969 26.292969 28.304688 23.808594 28.304688 L 6.191406 28.304688 C 3.707031 28.304688 1.695312 26.292969 1.695312 23.808594 L 1.695312 6.1875 M 0.6875 5.824219 L 0.6875 24.175781 C 0.6875 27.007812 2.996094 29.3125 5.828125 29.3125 L 24.171875 29.3125 C 27.007812 29.3125 29.3125 27.007812 29.3125 24.175781 L 29.3125 5.824219 C 29.3125 2.996094 27.007812 0.6875 24.171875 0.6875 L 5.828125 0.6875 C 2.996094 0.6875 0.6875 2.996094 0.6875 5.824219 "/>
<path style=" stroke:none;fill-rule:nonzero;fill:rgb(83.92157%,86.666667%,94.117647%);fill-opacity:1;" d="M 24.859375 0 L 5.082031 0 C 4.949219 0 4.816406 0.0078125 4.6875 0.015625 C 2.105469 0.351562 0.0898438 2.523438 0.00390625 5.175781 C 0.113281 2.304688 2.488281 0 5.386719 0 L 24.617188 0 C 27.546875 0 29.941406 2.359375 30 5.277344 L 30 5.265625 C 29.957031 2.621094 27.996094 0.433594 25.449219 0.0351562 C 25.257812 0.0117188 25.0625 0 24.859375 0 "/>
<path style=" stroke:none;fill-rule:nonzero;fill:url(#linear1);" d="M 23.808594 1.691406 L 6.191406 1.691406 C 3.707031 1.691406 1.695312 3.707031 1.695312 6.1875 L 1.695312 10.675781 C 5.535156 11.695312 10.136719 12.292969 15.085938 12.292969 C 19.960938 12.292969 24.5 11.714844 28.304688 10.71875 L 28.304688 6.1875 C 28.304688 3.707031 26.292969 1.691406 23.808594 1.691406 M 24.617188 0 L 5.386719 0 C 2.488281 0 0.113281 2.304688 0.00390625 5.175781 C 0.00390625 5.234375 0 5.292969 0 5.355469 L 0 10.179688 C 0.230469 10.253906 0.457031 10.324219 0.6875 10.390625 L 0.6875 5.824219 C 0.6875 2.996094 2.996094 0.6875 5.828125 0.6875 L 24.171875 0.6875 C 27.007812 0.6875 29.3125 2.996094 29.3125 5.824219 L 29.3125 10.441406 C 29.542969 10.375 29.769531 10.304688 30 10.234375 L 30 5.277344 C 29.941406 2.359375 27.546875 0 24.617188 0 "/>
<path style=" stroke:none;fill-rule:nonzero;fill:rgb(55.29412%,62.352943%,79.607844%);fill-opacity:1;" d="M 24.171875 0.6875 L 5.828125 0.6875 C 2.996094 0.6875 0.6875 2.996094 0.6875 5.824219 L 0.6875 10.390625 C 1.023438 10.488281 1.359375 10.585938 1.695312 10.675781 L 1.695312 6.1875 C 1.695312 3.707031 3.707031 1.691406 6.191406 1.691406 L 23.808594 1.691406 C 26.292969 1.691406 28.304688 3.707031 28.304688 6.1875 L 28.304688 10.71875 C 28.640625 10.632812 28.976562 10.539062 29.3125 10.441406 L 29.3125 5.824219 C 29.3125 2.996094 27.007812 0.6875 24.171875 0.6875 "/>
<path style=" stroke:none;fill-rule:nonzero;fill:rgb(100%,100%,100%);fill-opacity:1;" d="M 23.050781 8.105469 L 24.972656 8.105469 L 24.972656 4.214844 L 20.804688 4.214844 C 18.269531 4.214844 16.21875 6.265625 16.21875 8.796875 L 16.21875 11.125 L 12.929688 11.125 L 12.929688 15.019531 L 16.21875 15.019531 L 16.21875 27.003906 L 21.332031 27.003906 L 21.332031 15.019531 L 24.972656 15.019531 L 24.972656 11.125 L 21.332031 11.125 L 21.332031 9.820312 C 21.332031 8.875 22.101562 8.105469 23.050781 8.105469 Z M 23.050781 8.105469 "/>
</g>
</svg>
