<svg xmlns="http://www.w3.org/2000/svg" fill="none" viewBox="0 0 30 30" id="X-Twitter-Logo--Streamline-Logos-Block" height="30" width="30">
  <desc>
    X Twitter Logo Streamline Icon: https://streamlinehq.com
  </desc>
  <path fill="#000000" fill-rule="evenodd" d="M6.25 1.25C3.488575 1.25 1.25 3.488575 1.25 6.25v17.5c0 2.7613749999999997 2.238575 5 5 5h17.5c2.7613749999999997 0 5 -2.238625 5 -5V6.25c0 -2.761425 -2.238625 -5 -5 -5H6.25Zm-0.41786249999999997 4.375c-0.21919999999999998 0.0815875 -0.40415 0.2438625 -0.5121 0.46037500000000003 -0.1586125 0.318125 -0.12365 0.6986125 0.0902875 0.9825125l7.017725 9.3128625 -7.3948875 7.930000000000001c-0.0193875 0.020874999999999998 -0.037637500000000004 0.042249999999999996 -0.054775 0.06425h2.5586375l6.03685 -6.473750000000001 4.6416249999999994 6.159750000000001c0.108875 0.144375 0.255375 0.25225000000000003 0.4205 0.31399999999999995h5.527875c0.21850000000000003 -0.08175 0.403 -0.24375000000000002 0.510625 -0.45987500000000003 0.15862500000000002 -0.318125 0.12375 -0.6986249999999999 -0.09025 -0.9825l-7.01775 -9.312875L25.021625 5.625h-2.56375l-6.037249999999999 6.47415 -4.6416249999999994 -6.159675c-0.1091125 -0.1447875 -0.2562 -0.2528375 -0.421875 -0.31447500000000006H5.8321375ZM19.43175 22.559375 8.039375 7.441174999999999h2.523475L21.95525 22.559375h-2.5235000000000003Z" clip-rule="evenodd" stroke-width="1.25"></path>
</svg>